<?xml version="1.0" standalone="no"?>
<!DOCTYPE svg PUBLIC "-//W3C//DTD SVG 20010904//EN"
 "http://www.w3.org/TR/2001/REC-SVG-20010904/DTD/svg10.dtd">
<svg version="1.0" xmlns="http://www.w3.org/2000/svg"
 width="756.000000pt" height="756.000000pt" viewBox="0 0 756.000000 756.000000"
 preserveAspectRatio="xMidYMid meet">
<metadata>
Created by potrace 1.14, written by Peter Selinger 2001-2017
</metadata>
<g transform="translate(0.000000,756.000000) scale(0.100000,-0.100000)"
fill="#000000" stroke="none">
<path d="M27 7193 c-6 -13 0 -2476 6 -2502 29 -115 78 -231 129 -304 88 -128
293 -277 415 -302 37 -8 58 -13 58 -15 0 0 18 -3 40 -5 22 -2 60 -6 85 -10 25
-3 153 -6 285 -6 256 -1 294 -6 342 -50 67 -64 90 -172 55 -253 -26 -57 -75
-103 -125 -117 -24 -6 -161 -11 -349 -11 -169 -1 -331 -5 -359 -10 -242 -44
-454 -207 -550 -423 -26 -60 -23 -48 -48 -155 -12 -54 -7 -239 9 -295 18 -64
52 -148 72 -177 10 -14 18 -31 18 -37 0 -6 5 -11 10 -11 6 0 10 -4 10 -10 0
-19 69 -93 147 -157 80 -64 181 -110 308 -139 17 -4 181 -8 366 -9 230 -2 347
-6 372 -14 20 -7 55 -30 76 -52 91 -93 71 -243 -42 -313 l-48 -29 -347 -2
c-209 -2 -365 -7 -392 -13 -98 -24 -195 -64 -212 -87 -4 -5 -8 -6 -8 -2 0 9
-73 -43 -78 -55 -2 -5 -8 -8 -13 -8 -16 0 -129 -127 -151 -169 -7 -14 -15 -28
-19 -31 -11 -11 -49 -109 -68 -180 -18 -67 -20 -109 -21 -477 l-1 -403 1208 0
c1068 1 1216 3 1278 17 39 8 79 19 90 23 11 4 25 9 30 10 16 3 114 58 163 92
141 97 257 278 288 448 27 152 -13 373 -88 482 -10 14 -18 30 -18 36 0 12
-145 160 -184 187 -81 57 -197 105 -291 121 -22 3 -164 7 -316 9 -261 2 -278
3 -321 24 -71 34 -119 114 -113 187 6 71 24 108 74 152 46 40 80 44 389 46
331 3 368 8 497 73 277 138 424 435 369 746 -25 147 -80 256 -184 370 -85 93
-234 187 -321 202 -18 3 -41 11 -53 17 -14 8 -112 13 -306 15 -157 1 -296 5
-310 8 -99 22 -163 114 -155 222 7 92 63 165 144 188 37 11 797 13 807 2 3 -3
18 -1 34 3 16 4 31 6 33 3 3 -2 54 -6 114 -8 59 -1 131 -8 158 -15 117 -30
265 -120 342 -210 40 -47 93 -126 93 -139 0 -6 5 -11 10 -11 6 0 10 -8 10 -18
0 -10 4 -22 9 -27 5 -6 20 -44 32 -85 23 -75 23 -80 25 -785 3 -653 6 -860 18
-940 15 -101 42 -213 71 -297 13 -36 21 -69 17 -72 -3 -3 0 -6 6 -6 7 0 12 -6
12 -13 0 -41 174 -348 230 -408 8 -8 35 -40 60 -69 176 -211 449 -396 720
-488 125 -43 115 -40 290 -72 99 -17 176 -19 1353 -19 l1248 -1 -4 577 c-2
318 -7 589 -10 603 -4 14 -9 36 -12 50 -4 23 -7 36 -19 87 -10 43 -48 145 -79
214 -84 180 -248 376 -417 496 -69 49 -175 112 -200 118 -3 1 -27 11 -53 23
-27 12 -54 22 -61 22 -7 0 -16 3 -20 7 -3 4 -12 8 -19 9 -7 1 -39 10 -72 19
-33 9 -76 18 -95 21 -19 2 -46 7 -60 10 -14 4 -554 8 -1200 9 -646 2 -1182 5
-1190 8 -129 36 -216 120 -255 245 -13 45 -6 138 16 198 31 84 112 161 199
190 61 20 84 21 524 22 254 0 472 4 486 7 14 3 30 7 35 9 6 2 24 6 40 11 53
14 142 68 200 121 36 33 82 97 121 170 53 97 69 119 144 194 78 78 95 91 163
129 118 67 186 84 417 106 72 7 161 23 235 42 33 8 71 17 84 20 29 5 209 70
231 83 8 4 47 25 87 44 283 143 525 419 656 751 60 152 91 273 117 470 8 57 5
322 -4 375 -3 14 -7 43 -11 65 -19 119 -75 305 -129 426 -13 30 -23 57 -22 60
0 3 -4 12 -10 20 -7 8 -24 37 -39 64 -54 97 -151 221 -248 318 -55 53 -105 97
-113 97 -8 0 -14 4 -14 8 0 17 -226 152 -254 152 -9 0 -16 4 -16 10 0 5 -15
13 -32 19 -18 5 -70 23 -116 39 -45 17 -99 33 -120 38 -20 4 -41 8 -47 10 -5
1 -44 9 -85 17 -41 9 -93 19 -115 23 -52 10 -6142 17 -6148 7z m6103 -209 c47
-7 94 -15 105 -18 11 -2 34 -7 50 -11 104 -24 385 -146 385 -167 0 -4 5 -8 11
-8 47 0 389 -324 389 -369 0 -6 5 -11 10 -11 6 0 10 -7 10 -15 0 -8 4 -15 8
-15 5 0 15 -12 22 -27 8 -16 21 -39 30 -53 20 -32 100 -206 105 -228 2 -9 13
-53 25 -96 12 -44 23 -89 25 -100 1 -12 6 -46 11 -76 10 -70 10 -276 0 -355
-16 -126 -49 -247 -97 -360 -7 -16 -13 -32 -14 -35 -1 -6 -29 -59 -68 -130
-84 -152 -250 -332 -406 -439 -73 -50 -257 -151 -275 -151 -3 0 -17 -5 -33
-12 -33 -13 -28 -12 -73 -22 -19 -5 -39 -11 -45 -15 -5 -3 -12 -6 -15 -6 -3
-1 -21 -4 -40 -8 -19 -4 -46 -9 -60 -12 -14 -3 -47 -8 -75 -13 -27 -4 -619 -7
-1315 -7 -1400 0 -1345 -2 -1540 65 -47 17 -93 32 -103 35 -31 7 -198 100
-262 144 -120 84 -325 286 -325 320 0 6 -4 11 -8 11 -7 0 -18 15 -74 109 -24
39 -78 145 -83 161 -1 3 -7 17 -13 32 -15 37 -60 187 -67 223 -2 17 -7 41 -10
55 -16 80 -22 261 -12 360 10 94 23 175 27 175 1 0 3 9 5 19 5 29 17 69 28 96
3 8 11 33 17 55 7 22 27 70 46 107 18 36 30 69 27 72 -4 3 -2 6 3 6 5 0 18 17
29 38 11 20 22 39 25 42 4 3 17 23 30 45 14 22 32 49 42 60 9 11 26 31 38 45
69 82 193 200 210 200 5 0 10 4 10 8 0 4 13 16 30 25 16 10 35 23 43 30 26 24
199 115 272 144 91 35 236 71 318 79 28 3 53 6 55 8 1 2 562 4 1245 4 976 -1
1261 -3 1327 -14z"/>
</g>
</svg>
